# xmcd
#
# Track frame offsets: 
#        150
#        17719
#        34707
#        51771
#        70140
#        90645
#        111543
#        131146
#        146131
#        161737
#        181157
#        197701
#        216406
#
# Disc length: 3122 seconds
#
# Revision: 2
# Processed by: cddbd v1.5.2PL0 Copyright (c) Steve Scherf et al.
# Submitted via: ExactAudioCopyFreeDBPlugin 1.0
#
DISCID=c40c300d
DTITLE=Jeremih - Jeremih (Clean)
DYEAR=2009
DGENRE=R&B
TTITLE0=That Body
TTITLE1=Birthday Sex
TTITLE2=Break Up To Make Up
TTITLE3=Runway
TTITLE4=Raindrops
TTITLE5=Starting All Over
TTITLE6=Imma Star (Everywhere We Are)
TTITLE7=Jumpin
TTITLE8=Hatin On Me
TTITLE9=My Sunshine
TTITLE10=My Ride
TTITLE11=Buh Bye
TTITLE12=Birthday Sex (Up-Tempo)
EXTD=Birthday Sex
EXTT0=
EXTT1=
EXTT2=
EXTT3=
EXTT4=
EXTT5=
EXTT6=
EXTT7=
EXTT8=
EXTT9=
EXTT10=
EXTT11=
EXTT12=
PLAYORDER=
